<?xml version="1.0" encoding="UTF-8" standalone="no"?>
<!-- Created with Inkscape (http://www.inkscape.org/) -->

<svg
   xmlns:dc="http://purl.org/dc/elements/1.1/"
   xmlns:cc="http://creativecommons.org/ns#"
   xmlns:rdf="http://www.w3.org/1999/02/22-rdf-syntax-ns#"
   xmlns:svg="http://www.w3.org/2000/svg"
   xmlns="http://www.w3.org/2000/svg"
   xmlns:sodipodi="http://sodipodi.sourceforge.net/DTD/sodipodi-0.dtd"
   xmlns:inkscape="http://www.inkscape.org/namespaces/inkscape"
   version="1.1"
   id="svg2"
   width="1333.3333"
   height="1000"
   viewBox="0 0 1333.3333 1000"
   sodipodi:docname="logo.svg"
   inkscape:version="0.92.3 (2405546, 2018-03-11)">
  <metadata
     id="metadata8">
    <rdf:RDF>
      <cc:Work
         rdf:about="">
        <dc:format>image/svg+xml</dc:format>
        <dc:type
           rdf:resource="http://purl.org/dc/dcmitype/StillImage" />
        <dc:title></dc:title>
      </cc:Work>
    </rdf:RDF>
  </metadata>
  <defs
     id="defs6" />
  <sodipodi:namedview
     pagecolor="#ffffff"
     bordercolor="#666666"
     borderopacity="1"
     objecttolerance="10"
     gridtolerance="10"
     guidetolerance="10"
     inkscape:pageopacity="0"
     inkscape:pageshadow="2"
     inkscape:window-width="1366"
     inkscape:window-height="708"
     id="namedview4"
     showgrid="false"
     inkscape:zoom="0.41100002"
     inkscape:cx="749.56249"
     inkscape:cy="544.2831"
     inkscape:window-x="0"
     inkscape:window-y="31"
     inkscape:window-maximized="1"
     inkscape:current-layer="svg2" />
  <path
     style="fill:#000000;stroke-width:1.33333337"
     d="m 648.67474,986.50001 c -7.65828,-8.4768 -11.629,-18.5838 -12.37422,-31.4971 -0.54719,-9.4818 -0.11347,-12.6379 3.14789,-22.9043 2.08039,-6.549 4.14548,-11.6829 4.58908,-11.4088 0.44359,0.2742 1.85055,-1.2689 3.12656,-3.429 3.44651,-5.8344 4.81608,-4.8119 5.00807,3.7392 0.0947,4.2167 0.54902,16.6667 1.00966,27.6667 l 0.83752,20 1.13703,-27.6667 c 0.62535,-15.2167 1.60845,-27.6667 2.18467,-27.6667 0.57621,0 2.88122,2.8574 5.12225,6.3497 12.02048,18.7323 13.4502,37.9992 4.18217,56.359 -3.91314,7.7519 -10.05416,15.958 -11.94214,15.958 -0.58282,0 -3.29566,-2.475 -6.02854,-5.5 z m -29.04038,-53.9179 c -7.4962,-14.496 -8.297,-34.4753 -1.9041,-47.505 3.96348,-8.0782 13.18532,-19.1739 19.92334,-23.9718 l 4.08721,-2.9104 -1.13613,3.9026 c -0.62487,2.1463 -1.16655,12.6025 -1.20374,23.2358 l -0.0676,19.3334 -6.13004,12.6666 c -3.37153,6.9667 -7.34413,14.1366 -8.828,15.9331 l -2.69796,3.2664 -2.04296,-3.9507 z m 60.3982,-5.7051 c -9.47414,-15.9473 -11.18188,-22.4066 -11.33607,-42.877 -0.0745,-9.9 -0.64305,-19.7146 -1.26328,-21.8102 -1.04172,-3.5197 -0.92573,-3.7022 1.52096,-2.3927 5.08385,2.7208 18.16855,18.2095 21.55133,25.5109 4.0077,8.6502 5.3014,23.3308 2.91396,33.0668 -2.18014,8.8908 -5.58686,17.6252 -6.87441,17.6252 -0.60096,0 -3.53159,-4.1053 -6.51249,-9.123 z m -144.03257,-0.093 c 0,-4.6333 4.37177,-22.4203 7.25929,-29.5352 7.18564,-17.7055 18.42393,-30.9569 42.56877,-50.19389 22.8954,-18.24156 26.68153,-21.68447 34.22856,-31.12568 8.07215,-10.09812 18.33289,-30.15847 23.42737,-45.80185 2.05278,-6.30336 4.27555,-11.46064 4.93951,-11.46064 0.69896,0 0.9426,9.96373 0.57873,23.66666 -0.53162,20.02083 -1.17153,25.72066 -4.1539,37 -4.21528,15.94228 -15.3822,39.1564 -24.79084,51.536 -17.62915,23.1958 -47.85181,44.9892 -75.65643,54.5554 -8.67761,2.9855 -8.40106,2.9408 -8.40106,1.3592 z m 225.99999,-2.6925 c -3.66667,-1.3092 -11.76667,-4.9463 -18,-8.0824 -35.58754,-17.9046 -61.53837,-45.0107 -74.79988,-78.12975 -7.75194,-19.35959 -10.69361,-33.86159 -11.49878,-56.68749 -0.47483,-13.46083 -0.25511,-21.10418 0.62225,-21.64642 0.791,-0.48886 3.13749,4.2627 5.63003,11.40058 11.52057,32.99152 22.45982,47.94365 51.75333,70.7382 37.30224,29.02648 51.58298,49.18788 55.70888,78.64918 1.02236,7.3002 0.77774,7.3978 -9.41583,3.7581 z m -123.22806,-2.2025 c 0.064,-1.5533 0.37992,-1.8692 0.80554,-0.8056 0.38516,0.9625 0.3378,2.1125 -0.1052,2.5556 -0.44305,0.443 -0.75818,-0.3445 -0.70029,-1.75 z M 352.7359,908.33341 c 10.19336,-47.5086 57.03485,-85.65652 128.93075,-105.00178 6.41667,-1.72656 11.66667,-2.92714 11.66667,-2.668 0,0.25916 -8.66479,4.95134 -19.25508,10.42707 -10.59029,5.47573 -26.12606,14.53156 -34.52394,20.12405 -16.33935,10.88107 -23.67362,17.36772 -11.55431,10.219 10.90473,-6.43229 32.34512,-16.45264 46.73808,-21.84342 23.77413,-8.90446 61.68549,-19.6111 63.39348,-17.90311 1.30265,1.30264 -3.39262,15.56776 -8.41506,25.56659 -3.42144,6.81148 -7.90484,12.57697 -16.22233,20.86134 -16.91988,16.85246 -32.90443,24.10896 -62.8275,28.52176 -18.30179,2.6989 -38.91911,7.8625 -53.28791,13.3459 -12.14176,4.6334 -32.60735,14.6481 -39.37876,19.2697 -5.29781,3.6158 -6.20317,3.4577 -5.26409,-0.9191 z m 599.93077,0.9203 c -6.7663,-4.6202 -27.2322,-14.6356 -39.3788,-19.2709 -14.3688,-5.4834 -34.9861,-10.647 -53.28789,-13.3459 -33.18825,-4.8943 -53.82733,-15.5076 -70.44427,-36.2247 -3.64148,-4.54 -8.11489,-11.44 -9.94092,-15.33334 -4.35144,-9.27784 -8.32812,-22.14325 -7.19476,-23.27661 1.80182,-1.80181 38.84507,8.55051 63.09216,17.63211 13.98304,5.23726 36.45518,15.71241 46.82108,21.82514 3.85,2.27032 7,3.87252 7,3.56044 0,-1.17396 -18.4683,-14.13838 -30.49817,-21.40913 -6.87401,-4.1546 -19.02401,-10.82664 -27,-14.82675 -7.97599,-4.0001 -14.50179,-7.52462 -14.50179,-7.83226 0,-0.90856 22.36123,5.37764 35.33334,9.93293 45.38342,15.93683 81.73562,43.51597 96.62572,73.30647 4.9555,9.9145 8.3182,20.53 7.8004,24.6246 l -0.4261,3.3692 z m -58,-60.42369 c 0,-0.27687 -1.05,-1.32687 -2.3334,-2.33333 -2.1147,-1.6585 -2.1619,-1.61134 -0.5034,0.50341 1.7419,2.221 2.8368,2.92731 2.8368,1.82992 z m -238.56142,14.39229 c 0.064,-1.5532 0.37992,-1.8692 0.80555,-0.8055 0.38516,0.9625 0.3378,2.1125 -0.1052,2.5555 -0.44306,0.4431 -0.75819,-0.3444 -0.7003,-1.75 z m -461.86836,-14.7632 c -1.37163,-1.37163 -1.08201,-10.1535 0.59561,-18.06015 3.74056,-17.62935 13.51077,-28.95207 32.64571,-37.8332 8.65057,-4.015 14.99025,-8.08269 20.03873,-12.85735 l 7.38484,-6.98426 -0.96052,5.3046 c -1.82896,10.10062 -9.81459,30.25757 -15.35799,38.7659 -3.06222,4.7001 -9.0825,11.79972 -13.3784,15.77696 -9.45488,8.75355 -28.38845,18.46704 -30.96798,15.8875 z m 912.39751,-2.21952 c -20.9823,-8.6329 -37.4877,-27.72754 -45.7321,-52.90626 -1.8009,-5.5 -3.6936,-12.38706 -4.2059,-15.30458 l -0.9315,-5.3046 7.4547,7.05036 c 5.0685,4.79356 11.4055,8.88408 19.7973,12.77896 20.7811,9.64516 30.4079,21.96361 33.401,42.73978 1.3236,9.18754 0.8434,14.07586 -1.3761,14.00843 -0.573,-0.0175 -4.3563,-1.39535 -8.4074,-3.06209 z m -822.14194,-7.90626 c -12.23169,-8.18521 -18.85113,-24.49656 -17.45019,-43 0.73359,-9.68897 4.36298,-25.83806 6.24402,-27.78297 1.45326,-1.5026 12.42914,14.23961 15.31892,21.97124 1.66944,4.46657 2.10749,8.36163 1.57452,14 -2.55946,27.07671 -2.55427,27.83203 0.23105,33.59696 1.47429,3.05145 2.20281,5.54811 1.61891,5.54811 -0.58391,0 -3.97567,-1.95 -7.53723,-4.33334 z M 1020.0359,837 c 3.1151,-6.86283 3.3412,-16.67808 0.6281,-27.26853 -1.7838,-6.96266 -1.7822,-8.66388 0.014,-15.56162 2.1797,-8.36872 6.3022,-16.16506 12.3859,-23.42426 l 3.8449,-4.58775 2.1835,6.40808 c 9.2443,27.13057 3.8605,54.5392 -12.9186,65.76741 -3.5615,2.38334 -6.9784,4.33334 -7.593,4.33334 -0.6146,0 0.04,-2.55 1.4547,-5.66667 z M 594.66665,798.51884 c -4.76666,-2.21401 -13.76666,-5.60947 -20,-7.54545 -10.53681,-3.2726 -13.11377,-3.52347 -36.66666,-3.56942 -23.46419,-0.0457 -26.26791,0.21268 -38,3.50284 -6.96667,1.95375 -13.86667,3.98415 -15.33334,4.51202 -5.59618,2.01412 1.24096,-3.10964 13.31763,-9.98026 21.73055,-12.36286 48.40624,-21.36241 71.95684,-24.27601 12.20899,-1.51047 41.1029,-0.77351 50.05886,1.27677 l 4.66667,1.06835 -4.11061,2.16523 c -3.3616,1.77069 -6.76294,2.0278 -18.66667,1.41106 -14.44874,-0.74861 -27.63701,0.56612 -39.0202,3.8899 -5.35982,1.56501 -4.35326,1.69876 13.33334,1.77169 13.14916,0.0543 20.78061,0.67957 24.40729,2 5.26652,1.91748 5.27582,1.93369 4.92954,8.58777 -0.19082,3.66667 0.539,9.16243 1.62184,12.21279 3.05158,8.59639 0.77776,9.13739 -12.49453,2.97272 z m 107.65723,3.36061 c -0.43296,-0.43296 0.0671,-3.2084 1.11112,-6.16764 1.04408,-2.95922 1.89832,-8.58185 1.89832,-12.49472 v -7.1143 l 5.66666,-1.70196 c 3.40259,-1.02195 13.04674,-1.70756 24.13796,-1.71599 17.14899,-0.0133 18.05576,-0.13612 12.66667,-1.71933 -10.72752,-3.15154 -25.70596,-4.60406 -39.66125,-3.8461 -11.29367,0.6134 -14.623,0.3495 -18,-1.42678 l -4.14338,-2.1794 5.33334,-1.33184 c 7.90178,-1.97323 50.47405,-1.77386 59.99999,0.28098 23.06558,4.97548 49.05918,15.18674 66.78887,26.23718 5.51919,3.43996 9.84691,6.44246 9.61713,6.67222 -0.22977,0.22978 -5.47106,-1.04588 -11.64732,-2.83477 -17.39237,-5.03755 -28.23745,-6.24519 -49.42534,-5.50369 -21.32554,0.7463 -31.31928,2.96941 -49.73125,11.06276 -10.37359,4.5599 -13.12307,5.27184 -14.61152,3.78338 z M 192.39954,787.66667 c -4.37512,-3.10324 -11.06621,-12.28484 -11.06621,-15.1852 0,-2.16348 10.41251,-3.68898 17.71009,-2.59464 7.35485,1.10293 13.62633,4.96048 16.96377,10.43432 3.58775,5.88437 3.36452,7.1722 -1.53949,8.88174 -7.25816,2.53022 -17.32285,1.82959 -22.06816,-1.53622 z m 903.26706,1.5205 c -4.3614,-1.67646 -4.5231,-3.09946 -1.0072,-8.86602 5.0455,-8.27516 16.1143,-12.27427 28.7349,-10.3817 5.4442,0.8164 5.9731,1.20499 5.1973,3.81807 -1.2895,4.34287 -5.7527,10.56973 -9.6993,13.53179 -4.0638,3.04998 -17.3944,4.13929 -23.2257,1.89786 z m -658.81532,-1.88486 c -4.29846,-1.0861 -11.79846,-3.90616 -16.66666,-6.26684 l -8.8513,-4.29215 14.81204,-1.58327 c 17.76283,-1.89868 29.40326,-4.97013 34.62946,-9.13737 l 3.8577,-3.07603 -9.31626,-0.93181 c -13.71831,-1.37209 -26.38172,-4.05864 -54.44348,-11.55017 -13.81996,-3.68946 -30.31996,-7.55106 -36.66667,-8.58131 -31.25285,-5.07329 -68.74946,0.33628 -95.53945,13.78331 -13.11439,6.58268 -19.95121,11.5334 -30.5278,22.10598 l -9.19447,9.19099 0.71335,-8.88675 c 1.89529,-23.61136 21.26713,-42.89398 51.51265,-51.27545 15.92767,-4.41379 32.99388,-5.87015 59.89776,-5.11143 28.76976,0.81134 39.4594,2.50596 73.59851,11.66754 30.84809,8.2784 46.3137,10.62646 69.99999,10.62774 14.81318,8e-4 21.89282,-0.68378 34.29443,-3.3162 31.88963,-6.769 61.09071,-6.90264 77.93299,-0.35668 l 7.77258,3.02092 -24.66666,0.82526 c -37.04222,1.23929 -49.28338,5.2376 -77.37239,25.272 -22.24764,15.86804 -29.27563,18.89122 -45.14486,19.41965 -8.26684,0.27528 -15.59026,-0.27419 -20.63146,-1.54793 z m 404.12799,0.58029 c -7.29181,-1.71793 -14.53161,-5.67127 -30.31262,-16.55236 -15.95983,-11.00439 -23.68199,-15.10444 -36,-19.11404 -16.4914,-5.36807 -27.42188,-7.19972 -48,-8.04348 l -20.66667,-0.8474 7.77259,-3.01691 c 16.85408,-6.54186 46.0508,-6.40673 77.93298,0.36068 12.34635,2.62068 19.51386,3.31864 34.13532,3.32406 23.16447,0.008 38.8699,-2.38686 70.1591,-10.70087 13.5667,-3.60485 30.0667,-7.53188 36.6667,-8.72672 16.2046,-2.93363 58.2028,-4.03944 74.67423,-1.96617 44.8436,5.64449 70.7561,25.581 73.6691,56.67928 l 0.7442,7.94532 -9.2104,-9.29356 c -24.3575,-24.57727 -59.9753,-37.91934 -101.21053,-37.9125 -16.2629,0.003 -25.5226,1.34842 -48,6.97583 l -17.3333,4.33957 10,0.71464 c 11.146,0.79655 23.3762,5.73371 32.5719,13.14886 10.0714,8.12132 9.8983,8.77325 -2.3961,9.02657 -5.9634,0.12293 -16.5425,0.40499 -23.5091,0.62693 -10.8313,0.34506 -13.6204,-0.0304 -19.2482,-2.59156 -8.0025,-3.6417 -17.9875,-10.97877 -18.0439,-13.25877 -0.052,-2.08725 -0.5315,-2.07883 -11.6207,0.20404 -4.998,1.02889 -13.48049,2.29413 -18.85005,2.81164 l -9.76283,0.94095 4.4295,2.9875 c 6.93906,4.68011 16.44118,7.2386 33.76278,9.09078 l 16,1.71085 -8.7842,4.25893 c -15.4344,7.48314 -35.3008,10.23964 -49.5698,6.87791 z M 347.99999,774.53135 c -3.3,-0.73848 -10.19493,-1.07987 -15.32208,-0.75867 l -9.32208,0.58403 7.32208,-6.73572 c 4.02715,-3.70464 11.22208,-8.5849 15.98875,-10.84502 8.07261,-3.82764 9.672,-4.1066 23.33333,-4.06989 12.40843,0.0333 15.69313,0.50997 21.33333,3.09556 l 6.66667,3.05613 -4.66667,3.90975 c -2.56666,2.15036 -8.30048,5.73252 -12.74181,7.96037 -9.12923,4.57939 -22.27081,6.11302 -32.59152,3.80346 z m 116.42289,-39.202 c -11.4157,-2.4815 -18.50117,-5.85463 -31.82398,-15.15027 C 417.25144,709.47083 390.52134,700 375.64615,700 c -3.06901,0 -3.78523,-0.39427 -2.69561,-1.48388 2.20784,-2.20784 33.85104,-3.11173 48.44116,-1.38373 6.93456,0.8213 16.20829,2.41802 20.60829,3.54826 11.8912,3.05454 29.00478,11.68446 36.13326,18.22102 7.43452,6.81718 14.1131,15.62102 13.09712,17.2649 -1.0676,1.72742 -17.34837,1.21895 -26.80749,-0.83722 z m 355.12734,1.02162 c -1.11715,-1.80758 5.23424,-10.34381 12.98316,-17.4493 7.10091,-6.51128 24.24463,-15.1707 35.98289,-18.1752 4.3173,-1.10506 13.0173,-2.69799 19.3333,-3.53987 13.6458,-1.81888 47.6049,-0.93215 49.8384,1.30137 1.1271,1.12715 0.4481,1.51203 -2.6675,1.51203 -6.638,0 -21.4752,3.49127 -33.8189,7.95777 -10.7044,3.87331 -13.9532,5.70168 -31.6354,17.804 -3.9053,2.67291 -11.10531,6.11256 -16.00003,7.64367 -9.99875,3.12768 -32.68901,5.09249 -34.01592,2.94553 z m -43.73587,-20.326 -3.1477,-2.64169 4.46829,0.83536 c 5.00068,0.93488 6.81188,-0.71105 6.84309,-6.21864 0.018,-3.18044 -0.34633,-3.33545 -7.94361,-3.37948 -9.60872,-0.0557 -13.99565,-2.75801 -18.36777,-11.31443 -3.66967,-7.18169 -3.85644,-15.9781 -0.49488,-23.30609 5.19365,-11.32184 13.87992,-15.87168 24.75797,-12.96817 3.96103,1.05726 5.61859,1.03229 6.31537,-0.0951 1.56119,-2.52605 2.6261,2.07928 2.13491,9.23271 -0.43093,6.27593 -0.49996,6.37416 -2.02651,2.88382 C 785.80298,663.22161 781.74975,660 776.96333,660 c -8.94522,0 -14.29835,7.59851 -14.29462,20.29051 0.004,12.95492 7.4891,22.18546 16.60406,20.47549 l 4.84578,-0.90908 -0.39261,-8.89448 c -0.33893,-7.67819 -0.80179,-9.09773 -3.38472,-10.38081 -4.39111,-2.18127 -2.24029,-3.2483 6.54765,-3.2483 7.39151,0 10.11523,1.4844 5.77778,3.14884 -1.62155,0.62224 -2,3.74692 -2,16.51264 0,12.09266 -0.4815,16.4326 -2.0756,18.70851 -2.62326,3.74521 -8.52044,3.89368 -12.7767,0.32165 z m -249.81436,-0.025 c 0.45322,-0.73333 1.62444,-1.33333 2.6027,-1.33333 2.9941,0 3.3973,-3.34518 3.3973,-28.18572 V 662.5133 l -5.66667,0.41 c -4.37524,0.31656 -5.96661,1.0937 -6.98284,3.41 -2.06112,4.69799 -3.35049,3.5435 -3.35049,-3 v -6 h 19.33333 19.33333 l -0.0423,6.33334 -0.0423,6.33333 -2.73564,-3.66667 c -2.17121,-2.91022 -3.81291,-3.66666 -7.95771,-3.66666 h -5.22212 v 23.89097 c 0,24.76467 0.40422,28.10906 3.3973,28.10906 0.97826,0 2.14948,0.6 2.6027,1.33333 0.52182,0.84432 -2.90126,1.33333 -9.33333,1.33333 -6.43207,0 -9.85515,-0.48901 -9.33333,-1.33333 z m 71.57956,-3.98589 c -5.83906,-1.38204 -9.43998,-4.94934 -17.70719,-17.54183 -3.78137,-5.75976 -7.6996,-10.47228 -8.70715,-10.47228 -1.36841,0 -1.83189,2.22427 -1.83189,8.79149 0,7.67016 0.34013,8.88044 2.66667,9.48884 5.67369,1.48371 2.2469,3.053 -6.66667,3.053 -8.91357,0 -12.34036,-1.56929 -6.66667,-3.053 2.51692,-0.65818 2.66667,-1.81868 2.66667,-20.66666 0,-19.16682 -0.11253,-19.99875 -2.80083,-20.70175 -1.54224,-0.40331 -2.4056,-1.37191 -1.9213,-2.15551 1.10104,-1.78152 10.9476,-1.88232 12.03478,-0.1232 0.44894,0.72638 3.34115,0.95203 6.55542,0.51147 13.72494,-1.88121 20.00785,12.84445 9.25962,21.70244 l -3.45468,2.84712 6.30171,9.81955 c 7.15624,11.15112 12.38421,17.15288 14.9414,17.15288 0.9628,0 1.75054,0.6 1.75054,1.33333 0,1.4874 -0.194,1.48783 -6.42043,0.0141 z m -18.10282,-35.36964 c 2.46886,-2.46886 3.11438,-4.14239 2.44287,-6.33334 -1.49475,-4.87704 -3.33144,-6.31113 -8.08287,-6.31113 h -4.50341 v 8 c 0,7.68253 0.13468,8 3.39393,8 1.86667,0 4.90394,-1.50999 6.74948,-3.35553 z m 17.85659,27.49818 c 0,-0.65488 0.88104,-1.52877 1.95787,-1.94198 1.95493,-0.75018 6.04213,-9.0157 6.04213,-12.21896 0,-0.93094 -1.5,-2.0691 -3.33334,-2.52923 -5.09662,-1.27917 -4.1491,-3.93377 1.10007,-3.08195 l 4.43339,0.71944 5.08356,-13.87832 c 2.79594,-7.63308 5.53673,-13.87832 6.09061,-13.87832 1.22427,0 1.26661,0.10454 9.44687,23.33334 3.69084,10.48053 7.72964,19.63748 9.20958,20.88038 1.44976,1.21755 2.63592,2.56755 2.63592,3 0,0.43246 -3.6,0.78628 -8,0.78628 -8.36758,0 -9.46768,-0.63282 -5.78336,-3.32686 3.55062,-2.59627 1.18607,-5.54951 -6.45489,-8.06194 -3.90229,-1.28312 -7.78497,-2.58668 -8.62819,-2.8968 -0.8432,-0.31012 -2.2727,1.67719 -3.17666,4.41623 -1.42006,4.3028 -1.34755,5.19656 0.53309,6.57173 3.53564,2.58532 2.56576,3.29764 -4.48999,3.29764 -3.66666,0 -6.66666,-0.53581 -6.66666,-1.19068 z m 24.27818,-22.14265 c -1.97812,-5.5 -3.95249,-10 -4.38749,-10 -1.02229,0 -5.93943,14.41855 -5.15313,15.11057 0.32768,0.28839 3.29577,1.45912 6.59577,2.60163 3.3,1.14249 6.12183,2.12464 6.27072,2.18253 0.14891,0.0579 -1.34773,-4.39473 -3.32587,-9.89473 z m 19.72182,22.30673 c 0,-0.73097 1.2,-1.64285 2.66666,-2.0264 2.51808,-0.65849 2.66667,-1.81868 2.66667,-20.82217 0,-19.50427 -0.0856,-20.12483 -2.77777,-20.12483 -1.62514,0 -2.55075,-0.69158 -2.23066,-1.66666 0.71355,-2.1736 8.67358,-2.93776 10.9471,-1.05091 1.1666,0.9682 3.5089,1.07591 6.91289,0.31788 9.37368,-2.08739 15.85221,1.33099 20.76475,10.95648 3.4886,6.83547 2.91438,20.3106 -1.09431,25.6798 -5.78213,7.74455 -8.91169,8.99445 -23.91075,9.54968 -8.72277,0.32289 -13.94458,0.0185 -13.94458,-0.81287 z m 25.21974,-4.91466 c 8.14311,-4.21096 11.01844,-21.34404 5.06742,-30.1949 -3.62615,-5.39309 -10.67947,-8.23542 -15.25878,-6.14896 -2.92586,1.33312 -3.02838,1.97443 -3.02838,18.94359 0,9.66007 0.4,17.96376 0.88889,18.45264 1.54921,1.54923 8.43661,0.96143 12.33085,-1.05237 z m 17.44692,4.70066 c 0,-0.68233 1.35,-1.43233 3,-1.66666 2.94175,-0.41779 3.00714,-0.81903 3.36754,-20.66219 0.35528,-19.56112 0.27569,-20.25048 -2.38615,-20.66667 -1.51452,-0.2368 -2.87992,-1.03054 -3.0342,-1.76388 -0.17317,-0.82309 6.2112,-1.4336 16.68341,-1.59534 l 16.96394,-0.26202 11.70273,15.10096 11.70273,15.10096 0.66667,-15.79713 c 0.50332,-11.92648 1.18064,-16.30969 2.76433,-17.889 2.59563,-2.58844 9.40161,-3.25012 10.20116,-0.99176 0.35008,0.98883 -0.53968,1.66667 -2.18772,1.66667 -2.71735,0 -2.77777,0.5511 -2.77777,25.33333 0,19.41156 -0.38959,25.31853 -1.66667,25.27 -0.91667,-0.0348 -7.66667,-7.57135 -15,-16.74779 l -13.33333,-16.68445 -0.38267,13.65765 c -0.43704,15.59867 -0.0933,17.17126 3.75284,17.17126 1.53296,0 2.41639,0.6 1.96316,1.33333 -0.95294,1.54189 -19.33333,1.84248 -19.33333,0.31617 0,-0.55944 1.35,-1.60944 3,-2.33333 2.84868,-1.24979 3.01944,-2.15683 3.38537,-17.98284 0.21195,-9.16667 0.0684,-17.94549 -0.31904,-19.50849 -0.81561,-3.29048 -6.34369,-4.82699 -10.99885,-3.0571 -3.00651,1.14307 -3.06748,1.5507 -3.06748,20.50719 v 19.34093 l 3.33333,0.83662 c 6.63678,1.66572 3.10388,3.21418 -7.33333,3.21418 -5.86667,0 -10.66667,-0.55826 -10.66667,-1.2406 z m 491.33332,-1.98366 c -0.7333,-0.27951 -5.8015,-1.5368 -11.2627,-2.794 -17.1716,-3.95306 -34.4259,-12.52324 -49.3875,-24.53072 -8.0066,-6.42567 -8.0742,-6.44994 -13.0324,-4.68028 -6.0929,2.17465 -14.8574,2.38334 -19.8973,0.47378 -3.8007,-1.44005 -9.7534,-6.28918 -9.7534,-7.9452 0,-0.49638 2.85,-0.94074 6.3333,-0.98748 3.4833,-0.0467 8.4693,-0.256 11.08,-0.46506 2.8968,-0.23196 6.8725,0.72794 10.2013,2.46301 6.9087,3.60099 8.0751,2.56676 2.6113,-2.3152 -3.6785,-3.28671 -4.2259,-4.63923 -4.2259,-10.44077 0,-8.07274 0.928,-9.22958 5.1727,-6.44832 4.1156,2.69665 6.6786,10.31713 5.7638,17.13748 -0.6929,5.16553 -0.551,5.37972 7.4825,11.29358 12.5415,9.23256 13.3285,9.46388 9.5423,2.80474 -8.926,-15.69922 -3.3603,-36.04159 11.7912,-43.09604 9.0884,-4.23152 17.1306,-4.20534 25.7378,0.0837 10.929,5.44617 15.5714,17.5494 10.4959,27.36431 -3.8195,7.38602 -13.0363,9.04446 -18.7135,3.36724 -3.8907,-3.89067 -4.1766,-7.49596 -0.8344,-10.52062 3.4375,-3.11089 5.9429,-2.84157 4.8747,0.524 -1.8886,5.95055 6.1177,8.98499 10.6099,4.0212 2.8813,-3.18386 3.2351,-10.76332 0.7216,-15.45989 -2.8534,-5.3316 -11.7452,-9.95856 -19.1378,-9.95856 -8.2226,0 -13.9269,2.51529 -19.1215,8.43161 -11.6542,13.27342 -8.3783,34.47284 6.8897,44.58596 11.5167,7.62836 41.688,13.36166 61.7492,11.7339 38.048,-3.0872 63.6438,-19.3918 78.8443,-50.22403 10.0001,-20.28388 12.5052,-31.07367 12.5052,-53.86077 0,-22.27664 -2.5846,-33.75216 -11.3549,-50.41504 -23.2641,-44.20022 -83.3522,-62.2081 -141.4583,-42.39378 -5.9916,2.04314 -13.2938,4.98444 -16.2271,6.53622 l -5.3333,2.82141 5.0762,0.0589 c 9.726,0.11294 17.0001,2.7875 19.7223,7.25167 5.0416,8.26795 1.1229,23.46164 -6.3301,24.54296 -2.3918,0.34701 -2.8918,-0.49176 -3.6355,-6.09796 -1.4879,-11.21613 -9.4283,-16.19865 -25.9328,-16.27259 -6.1745,-0.0277 -8.3033,0.74671 -16.3333,5.9413 l -9.2335,5.97309 v 16.69362 16.69356 h 17.421 c 9.5815,0 18.5815,0.62111 20,1.38024 4.2565,2.27803 3.4443,9.65463 -1.5233,13.83457 -4.1843,3.52087 -7.8977,4.51696 -7.8977,2.11852 0,-0.73333 -1.2,-2.53333 -2.6667,-4 -2.2483,-2.24836 -4.4444,-2.66666 -14,-2.66666 h -11.3333 v 22.61976 c 0,27.18692 -1.1718,25.70292 20.9057,26.47448 13.6481,0.47696 15.5145,0.24221 22.1207,-2.78222 7.1112,-3.25562 11.6365,-7.95485 14.2305,-14.77758 1.1021,-2.89879 1.8319,-3.30012 4.3665,-2.40123 1.6738,0.5936 4.1042,3.20088 5.4009,5.79395 2.0437,4.0871 2.1325,5.3871 0.6666,9.76641 -3.99,11.92035 -12.7218,13.92479 -60.7795,13.95227 l -36.4218,0.0208 0.4218,-3.66666 c 0.3589,-3.11879 1.1192,-3.73206 5.0886,-4.10424 9.5173,-0.89239 9.3333,-0.0167 9.3333,-44.43575 0,-21.88633 -0.3249,-39.79335 -0.7221,-39.79335 -0.3972,0 -10.7472,6.79072 -23,15.09048 -12.2528,8.29976 -26.6279,17.66814 -31.9445,20.81862 l -9.6667,5.72814 v 18.57532 c 0,17.94416 0.1112,18.68652 3.2727,21.84804 2.3961,2.39611 4.7176,3.27274 8.6667,3.27274 4.8646,0 5.3939,0.32709 5.3939,3.33333 v 3.33333 h -24.75933 -24.7594 l 0.426,-3 c 0.3466,-2.44038 1.479,-3.12436 6.0703,-3.66666 10.0376,-1.1856 11.0225,-3.0311 11.0225,-20.65362 0,-8.44052 -0.1562,-15.34638 -0.347,-15.34638 -0.1909,0 -6.2661,2.0611 -13.5005,4.58025 -7.2343,2.51913 -18.4782,5.33389 -24.9863,6.25501 -11.0062,1.55776 -11.8329,1.89086 -11.8329,4.76762 0,4.83753 -5.2127,14.72336 -9.8174,18.61856 -2.3004,1.94597 -7.4826,5.09222 -11.5159,6.99168 -6.5649,3.09165 -8.943,3.45354 -22.6947,3.45354 -14.7004,0 -15.748,-0.19032 -24.3464,-4.42332 -11.16738,-5.49766 -15.62559,-11.3279 -15.62559,-20.43433 0,-5.32955 0.59779,-6.74163 4.10231,-9.69049 5.30684,-4.46542 6.09792,-4.35627 7.09889,0.9794 1.20069,6.40045 7.73229,16.02542 13.14499,19.37066 9.5409,5.89663 27.9587,6.11654 35.6466,0.42563 4.8543,-3.59329 9.3405,-10.74063 9.3405,-14.88107 0,-3.43522 -0.4808,-3.68721 -10.9825,-5.75617 -15.6897,-3.09104 -29.0549,-10.07613 -39.821,-20.81171 -4.8419,-4.82822 -10.09478,-11.3103 -11.673,-14.4046 -6.78968,-13.31201 -8.73696,-32.59528 -4.81291,-47.66072 9.29463,-35.6845 48.58721,-56.28853 91.78961,-48.1322 14.7566,2.78596 22.3463,5.64883 50.9338,19.21255 32.51953,15.42927 51.64063,19.49428 63.81173,13.56588 2.9815,-1.45228 6.621,-4.45056 8.0876,-6.66284 4.3173,-6.51199 6.4693,-4.68141 2.7857,2.36955 -2.5764,4.93168 -8.2935,10.03264 -15.4523,13.78709 -5.3371,2.799 -7.6943,3.13595 -21.3334,3.04939 -12.1407,-0.0771 -17.0597,-0.70168 -23.6246,-3 -4.5602,-1.59648 -8.6102,-2.9027 -9,-2.9027 -0.3898,0 -0.7087,15.6 -0.7087,34.66667 0,19.06667 0.3973,34.66667 0.8829,34.66667 1.7837,0 13.7287,-7.49595 38.7838,-24.33828 l 25.6666,-17.25346 v -7.66414 c 0,-7.64147 -2.3647,-12.07746 -6.4383,-12.07746 -2.2614,0 -1.9169,-1.93609 0.7717,-4.33717 1.8671,-1.66741 6.9959,-2.20149 25.6666,-2.67275 l 23.3334,-0.58894 14,-6.12107 c 24.5053,-10.71417 35.0234,-13.21105 58.6666,-13.92675 11.3667,-0.34408 23.7363,-0.0608 27.488,0.62939 l 6.8214,1.25497 -3.9732,-5.63678 c -4.3732,-6.20428 -6.1788,-13.36191 -5.2905,-20.9715 0.6402,-5.48361 2.2955,-6.47232 3.6566,-2.18404 0.5648,1.77978 4.0723,4.20303 9.7565,6.7407 12.3909,5.53182 18.5343,10.07448 22.1615,16.38704 2.9677,5.16489 5.6698,14.09357 4.265,14.09357 -0.3629,0 -4.0807,-3.45 -8.2617,-7.66667 l -7.6018,-7.66666 7.1066,8.31924 c 3.9087,4.57558 10.6198,10.48766 14.9137,13.13796 10.3106,6.3641 24.4004,20.77701 30.6587,31.36181 18.9283,32.01381 18.0605,79.89385 -2.0994,115.83336 -7.3427,13.09004 -23.9027,29.93004 -36.0458,36.65536 -16.4963,9.13623 -26.8314,11.67885 -49.5556,12.19157 -11,0.24819 -20.6,0.22259 -21.3333,-0.0569 z M 920.09787,597.51619 c -2.8434,-5.31295 -11.7786,-11.37332 -28.9186,-19.61434 -17.7089,-8.51453 -26.57,-14.8641 -31.49526,-22.56852 -2.31868,-3.62701 -2.46923,-3.68917 -1.61456,-0.66666 5.5061,19.47221 27.36302,38.08985 49.93052,42.53069 4.0333,0.79368 8.5333,1.67936 10,1.96819 1.4667,0.28881 2.8378,0.59472 3.0469,0.67978 0.2092,0.0851 -0.2179,-0.96305 -0.949,-2.32914 z m 39.9021,-1.02266 c 4.0333,-1.0139 11.6833,-3.40061 17,-5.30377 l 9.6667,-3.46031 v -43.00018 -43.0002 l -15.7514,-7.39466 c -29.1513,-13.68537 -46.5686,-17.32604 -66.3128,-13.86106 -26.3903,4.63132 -45.76748,23.31393 -48.06992,46.34682 L 855.81483,534 l 2.59643,-5.33333 c 3.42069,-7.02647 10.04001,-13.15656 18.25541,-16.90614 5.4824,-2.50226 8.9166,-3.03461 19.3333,-2.99694 13.5874,0.0491 22.4158,2.76474 29.1552,8.96821 10.7536,9.89833 8.1674,28.93487 -3.9309,28.93487 -2.0486,0 -2.5778,-0.9952 -2.6591,-5 -0.2952,-14.55515 -8.9435,-23.40752 -23.0276,-23.57128 -14.1024,-0.16396 -24.8709,8.64829 -24.8709,20.35265 0,10.78899 6.1668,16.53273 30.5129,28.41968 21.7171,10.60335 30.7167,18.02633 33.6254,27.73472 l 1.6787,5.60325 8.0915,-0.93433 c 4.4503,-0.51389 11.3915,-1.76391 15.4248,-2.77783 z m 130.02853,-76.2428 c -0.8316,-0.83157 -8.6952,3.807 -8.6952,5.1291 0,0.72125 2.0571,-0.0371 4.5713,-1.68519 2.5142,-1.64809 4.3699,-3.19785 4.1239,-3.44391 z M 506.32788,634.55244 c -8.19384,-1.93115 -18.32313,-7.73031 -25.7176,-14.72368 -30.93973,-29.26151 -23.5327,-89.09663 13.10575,-105.87027 16.06252,-7.35366 38.1907,-7.45217 54.3915,-0.24212 20.43455,9.09424 33.15143,31.26224 33.20608,57.88467 0.0643,31.32937 -16.58108,55.47443 -43.11388,62.53905 -7.60368,2.02456 -24.12433,2.2383 -31.87185,0.41235 z m 31.82332,-11.80863 c 25.88949,-11.42562 35.72893,-53.33032 19.51651,-83.11786 -13.04392,-23.966 -47.20231,-28.99363 -65.85552,-9.693 -10.50144,10.86593 -15.20235,26.44662 -14.20822,47.09177 0.53727,11.15717 1.27955,14.64251 4.65446,21.85452 6.70292,14.32379 15.5154,22.42373 28.3423,26.05065 8.03636,2.27236 19.51119,1.36186 27.55047,-2.18608 z M 1168.54,633.1884 c -1.8904,-2.09252 -2.4963,-4.63153 -2.3692,-9.92747 0.1489,-6.20053 2.235,-11.3701 16.2171,-40.1884 25.5715,-52.70484 28.4892,-61.78301 21.5919,-67.18213 l -3.3132,-2.59349 3.1477,-2.64846 c 6.3473,-5.34056 17.7869,-1.64128 23.1101,7.47324 1.321,2.26195 10.2592,25.95991 19.8626,52.66214 18.8263,52.3466 20.6485,55.88284 28.7958,55.88284 3.8228,0 4.4172,0.44856 4.4172,3.33333 v 3.33333 h -20 -20 v -3.24885 c 0,-2.68888 0.745,-3.32087 4.3224,-3.66667 2.9121,-0.28149 4.472,-1.20724 4.781,-2.83729 0.2522,-1.33071 -1.7722,-8.68071 -4.4986,-16.33333 l -4.9573,-13.91386 h -24.2818 -24.2818 l -4.2086,10.75194 c -4.7682,12.1814 -5.5742,22.3587 -2.0499,25.88298 2.3852,2.38527 2.3904,2.37183 -1.7378,4.51782 -4.7517,2.47009 -11.7041,1.84993 -14.5476,-1.29767 z m 66.1216,-52.85507 c 0,-0.55 -3.6027,-11.1636 -8,-23.58578 -4.3972,-12.42219 -8.0121,-22.92219 -8.0329,-23.33334 -0.021,-0.41114 -2.9438,6.15246 -6.4953,14.58579 -3.5515,8.43333 -8.3093,19.38333 -10.5729,24.33333 l -4.1157,9 h 18.6109 c 10.236,0 18.6087,-0.45 18.6059,-1 z m -588.96155,53.1236 c -5.77896,-1.48706 -10.53616,-4.74481 -11.32311,-7.75412 -1.03368,-3.9528 1.23355,-8.22092 4.849,-9.12833 2.60688,-0.65429 4.04972,-0.0152 6.56364,2.90744 2.84356,3.30584 4.31239,3.80768 12.49862,4.27024 7.39718,0.41797 10.33338,-0.0193 14.49408,-2.15856 11.28549,-5.80251 18.40637,-17.92872 21.59413,-36.77284 2.80519,-16.58251 1.00833,-29.57539 -6.00727,-43.43816 -8.74329,-17.27664 -21.06234,-23.60096 -43.6687,-22.41851 -6.66887,0.34883 -13.45466,1.34572 -15.07951,2.21531 l -2.95428,1.58109 -0.008,46.95308 c -0.004,26.96427 -0.57103,48.98194 -1.33131,51.71878 -2.24405,8.07817 -6.70641,11.07436 -17.39285,11.6782 -9.23721,0.52198 -9.26784,0.5122 -9.26784,-2.96008 0,-2.9628 0.58372,-3.4838 3.90323,-3.4838 2.62862,0 4.80562,-1.14722 6.66666,-3.51315 2.68198,-3.40957 2.76344,-4.95941 2.76344,-52.57143 0,-54.47089 0.2011,-53.24876 -8.7619,-53.24876 -3.98729,0 -4.57143,-0.42592 -4.57143,-3.33333 0,-3.28697 0.15299,-3.3332 11,-3.32372 6.05,0.005 18.5764,-0.67812 27.83645,-1.51868 12.06979,-1.09561 19.51474,-1.13079 26.2965,-0.12427 30.6274,4.54578 47.10402,26.12723 47.00561,61.56906 -0.08,28.79064 -11.59557,50.4694 -31.69765,59.67244 -7.98794,3.657 -25.1932,5.2958 -33.40751,3.18206 z M 30.666667,630 c 0,-2.88396 0.59477,-3.33333 4.41183,-3.33333 2.4265,0 5.5765,-0.85116 7,-1.89146 2.4694,-1.80466 2.60564,-4.16769 2.9689,-51.49504 0.43369,-56.50336 0.52399,-55.94684 -9.07813,-55.94684 -4.76722,0 -5.3026,-0.33656 -5.3026,-3.33333 v -3.33333 h 21.42607 21.42606 l -0.42606,3 c -0.34188,2.40718 -1.41013,3.08153 -5.406,3.41262 -9.0931,0.75343 -9.02007,0.31646 -9.02007,53.97171 0,54.9724 0.10681,55.54707 10.33333,55.59525 3.72789,0.0176 4.33333,0.48614 4.33333,3.35375 v 3.33333 h -21.33333 -21.33333 z m 61.33333,0 c 0,-2.75548 0.642,-3.33333 3.70333,-3.33333 4.25399,0 8.953813,-2.91184 11.064073,-6.85491 0.80009,-1.49497 3.17938,-23.80823 5.2873,-49.58499 4.41093,-53.93904 4.53123,-52.89344 -6.08544,-52.89344 -5.53129,0 -5.969263,-0.25298 -5.969263,-3.44806 v -3.44808 l 15.488693,0.44808 15.4887,0.44806 4.17797,4.88287 c 3.67349,4.29328 16.8633,33.90928 36.00274,80.83949 2.47986,6.08063 4.79667,11.34354 5.1485,11.69535 0.35181,0.35181 8.3617,-18.70608 17.79977,-42.35088 21.89652,-54.85643 22.5967,-55.73349 44.49408,-55.73349 11.98173,0 12.06621,0.0233 12.06621,3.33333 0,2.93235 -0.57193,3.33333 -4.75432,3.33333 -7.83532,0 -9.91235,1.87 -9.91235,8.9243 0,6.65702 7.61678,85.72365 8.7526,90.8572 1.15059,5.20025 6.55075,9.55184 11.85347,9.55184 4.15353,0 4.72727,0.40456 4.72727,3.33333 v 3.33333 h -20 -20 V 630 c 0,-2.45623 0.7092,-3.33333 2.69525,-3.33333 5.47729,0 5.58808,-3.9084 1.37555,-48.5277 -2.2083,-23.39022 -4.2071,-42.7197 -4.44179,-42.9544 -0.23468,-0.23469 -6.63615,15.00278 -14.22547,33.86103 -19.87894,49.39601 -25.36505,60.72932 -30.40846,62.81836 -2.24137,0.92841 -5.4822,1.48883 -7.20183,1.24536 -2.78217,-0.39389 -3.2116,-1.3302 -3.89838,-8.49979 -0.60962,-6.36405 -4.52988,-16.82117 -18.65604,-49.7639 -16.19257,-37.76171 -17.9686,-41.28767 -18.77607,-37.27619 -0.49051,2.4368 -2.21457,22.03988 -3.83126,43.56237 -3.11501,41.46935 -2.87633,45.53486 2.67325,45.53486 1.98604,0 2.69525,0.8771 2.69525,3.33333 v 3.33333 H 110.66666 91.999997 Z m 181.333333,0 c 0,-2.87753 0.59756,-3.33333 4.36998,-3.33333 5.39004,0 9.46514,-2.72127 11.4013,-7.61356 1.3596,-3.43544 8.22872,-81.56631 8.22872,-93.59522 0,-6.13626 -1.15063,-7.13361 -9.33334,-8.08997 -4.87736,-0.57004 -6,-1.2002 -6,-3.36792 0,-2.43831 1.0276,-2.70231 12,-3.08281 14.28042,-0.49523 20.9723,1.18449 24.36672,6.11626 2.13972,3.10883 17.10025,37.58379 35.10008,80.8844 l 4.95417,11.91786 2.22415,-5.25119 c 1.22327,-2.88816 8.84917,-21.91725 16.94644,-42.28688 8.09727,-20.36964 16.00169,-38.91447 17.56537,-41.21073 5.65431,-8.30336 8.99587,-9.70887 24.26978,-10.20827 l 13.90662,-0.45471 v 3.45471 c 0,3.19731 -0.43992,3.45469 -5.90476,3.45469 -6.8316,0 -10.09725,2.51192 -10.09096,7.76191 0.005,4.38115 7.66571,82.98689 8.75402,89.827 1.05489,6.63009 6.31978,11.74443 12.09018,11.74443 3.89496,0 4.48486,0.43844 4.48486,3.33333 v 3.33333 h -20 -20 V 630 c 0,-2.37199 0.722,-3.33333 2.50341,-3.33333 4.95917,0 5.94641,-3.26168 4.95504,-16.37059 -1.76916,-23.39332 -6.79447,-72.74361 -7.47691,-73.42585 -0.37681,-0.3767 -5.12397,10.2234 -10.54924,23.55576 -27.62609,67.88994 -30.27684,72.93054 -38.32974,72.88693 -5.51146,-0.0299 -7.39807,-1.67129 -6.4164,-5.58256 1.18337,-4.71491 -3.80386,-18.75973 -18.74908,-52.80048 -6.98573,-15.91144 -13.68977,-31.32988 -14.89787,-34.26321 -2.93616,-7.12924 -4.37254,-8.60038 -4.37254,-4.47831 0,1.86359 -1.18003,17.73359 -2.6223,35.26667 -1.44225,17.53306 -2.89066,35.38677 -3.21868,39.6749 -0.77925,10.18734 1.0472,15.53674 5.30475,15.53674 2.52753,0 3.20289,0.70286 3.20289,3.33333 v 3.33333 h -19.33333 -19.33333 z m 458.66665,-0.66667 c 0,-3.7509 0.31926,-4 5.12668,-4 9.76051,0 9.53999,1.23611 9.53999,-53.47497 0,-55.12297 0.10318,-54.52503 -9.40894,-54.52503 -4.71935,0 -5.25773,-0.34132 -5.25773,-3.33333 v -3.33333 l 27,-0.33334 c 48.64309,-0.60053 54.60007,-0.39094 59.28433,2.08583 7.50907,3.97036 9.07378,17.61875 2.91719,25.44557 -4.36384,5.54774 -7.53803,4.58066 -8.61871,-2.62585 -1.20784,-8.0544 -5.69569,-13.19772 -13.15462,-15.07591 -11.55119,-2.90862 -32.12607,-1.02466 -37.00216,3.38814 -2.13104,1.92856 -2.42603,4.52124 -2.42603,21.32221 V 564 h 17.70332 c 13.86495,0 18.34584,0.45003 20.66667,2.0756 3.80472,2.66493 3.78952,7.53359 -0.0367,11.74229 -3.29187,3.62099 -9,5.9076 -9,3.6053 0,-0.78276 -1.2,-2.62319 -2.66667,-4.08986 -2.2716,-2.2716 -4.44444,-2.66666 -14.66666,-2.66666 h -12 l 0.0204,21.66666 c 0.0107,11.91667 0.52346,22.46006 1.13828,23.42976 2.80009,4.41628 32.13961,5.95822 41.21746,2.16618 6.27199,-2.61996 11.80819,-7.84996 15.11455,-14.2786 2.54413,-4.94662 2.63244,-4.9888 6.38299,-3.04932 4.2595,2.20268 5.45964,4.45374 5.45964,10.24058 0,8.9102 -5.63023,14.03935 -18.72274,17.05646 -3.26996,0.75354 -22.28909,1.38442 -42.27726,1.40234 l -36.33331,0.0326 z M 649.40094,489.87332 c -13.05229,-14.86575 -19.105,-29.12497 -19.20273,-45.23869 -0.056,-9.23664 0.49185,-11.87871 4.00915,-19.33334 4.45968,-9.45196 13.83565,-20.92278 16.0056,-19.58169 0.75261,0.46515 2.18996,11.81852 3.19409,25.22972 l 1.82571,24.38401 2.05028,-24.56256 c 1.2894,-15.44718 2.61133,-24.74698 3.56212,-25.0595 2.00953,-0.66054 10.6209,9.44341 14.45073,16.9554 10.33015,20.26201 5.83397,43.06476 -12.94796,65.66666 -2.89461,3.48334 -6.04491,6.33334 -7.00065,6.33334 -0.95575,0 -3.63159,-2.157 -5.94634,-4.79335 z m -65.40095,-12.96465 c 0,-12.63386 7.7744,-25.78183 17.98855,-30.42203 5.32278,-2.41808 15.35019,-3.38995 15.33879,-1.48664 -0.003,0.55 -3.45331,4.9 -7.66667,9.66667 l -7.66068,8.66666 7.10572,-6 c 12.2541,-10.34724 12.22762,-10.33573 12.22762,-5.31732 0,16.52088 -13.78006,29.31732 -31.57085,29.31732 -5.63678,0 -5.76248,-0.0965 -5.76248,-4.42466 z m 124.78763,2.32698 c -12.16928,-4.45873 -19.99637,-15.12082 -19.2015,-26.15632 l 0.41386,-5.746 6,5.34224 c 11.46932,10.21198 12.53159,10.60719 4.95432,1.84323 -4.19154,-4.848 -7.62098,-9.198 -7.62098,-9.66667 0,-1.63552 9.4579,-0.83589 14.37616,1.21544 10.65106,4.44243 18.95717,17.57927 18.95717,29.98244 v 5.28332 l -6.33333,-0.094 c -3.48334,-0.0517 -8.6789,-0.95334 -11.5457,-2.00373 z M 520.02927,448.42412 c 0.0893,-7.38963 10.11314,-22.1006 19.42412,-28.50673 16.12085,-11.09143 36.6775,-12.68999 64.98023,-5.05308 9.15678,2.47076 10.32508,3.10416 8.36683,4.53606 -3.65959,2.67596 -23.03992,8.53348 -37.46713,11.3241 l -13.33333,2.57904 12.07565,-0.54848 c 12.75593,-0.57938 24.49195,-3.09274 34.52684,-7.39419 3.33529,-1.42967 6.06417,-2.1052 6.06417,-1.50117 0,0.60402 -2.43159,3.86065 -5.40352,7.23694 -11.45264,13.0109 -33.06444,19.07878 -55.49352,15.58076 -17.91728,-2.79436 -24.33438,-2.55889 -29.43629,1.08008 -3.93925,2.80972 -4.33067,2.87035 -4.30405,0.66667 z m 266.00034,-0.84643 c -4.66284,-3.41873 -10.46163,-3.58342 -30.84711,-0.87613 -11.07688,1.47105 -15.19111,1.48569 -23.04569,0.082 -12.31311,-2.20047 -23.77099,-7.97529 -30.66651,-15.45605 -6.45874,-7.00691 -7.07669,-9.56002 -1.63246,-6.7447 7.68598,3.97459 23.71816,7.51358 36.82881,8.12972 l 13.33333,0.6266 -13.94135,-2.56304 c -14.65631,-2.69448 -34.33671,-8.55633 -38.19245,-11.37572 -1.95594,-1.43022 -0.7001,-2.09165 8.92887,-4.7027 40.13101,-10.88219 69.43281,-1.49426 81.22881,26.0247 3.66836,8.55795 3.08115,10.57655 -1.99425,6.85532 z m -404.69629,-5.80572 c -9.91109,-0.79928 -11.05754,-2.53662 -2.4171,-3.66289 19.91346,-2.59572 42.25416,-10.97229 55.06997,-20.64833 9.32415,-7.03979 19.04129,-11.77203 28.98825,-14.11723 8.39405,-1.97907 26.52117,-2.73679 28.08403,-1.17393 1.10212,1.10213 -5.63411,10.7166 -11.26452,16.0776 -10.14848,9.66286 -29.35784,18.27672 -48.46063,21.73068 -8.98836,1.62517 -38.82093,2.69562 -50,1.7941 z m 506.82695,-0.49665 c -21.4881,-2.70283 -42.54945,-10.53511 -53.95818,-20.06588 -6.57164,-5.48989 -15.76582,-17.09133 -14.79272,-18.66584 1.16745,-1.88897 19.01962,-1.38407 28.28282,0.79992 9.94696,2.3452 19.66408,7.07744 28.98828,14.11723 12.8158,9.67604 35.1565,18.05261 55.07,20.64833 3.896,0.50785 6.574,1.43312 5.9509,2.05616 -1.7044,1.70441 -38.2973,2.52436 -49.5411,1.11008 z M 303.33333,415.90948 c -44.71279,-6.05445 -70.89046,-25.88916 -73.60228,-55.76815 l -0.79942,-8.808 9.00516,9.6805 c 23.06619,24.79602 54.29167,36.67301 96.72987,36.79237 22.97333,0.0647 27.02472,-0.59541 68.66666,-11.18679 21.68388,-5.51516 43.02692,-9.48781 58.66667,-10.91982 l 4,-0.36626 -6.03287,-3.61728 c -7.72796,-4.63364 -18.55734,-7.3233 -35.30046,-8.76749 l -13.33334,-1.15007 10,-4.77536 c 12.7001,-6.06473 23.5158,-8.1692 38.29088,-7.45042 14.65272,0.71281 20.83512,3.44397 41.70912,18.42558 17.58795,12.62316 29.50421,18.72759 44.66667,22.88168 9.02194,2.47178 14.31566,2.93763 34.33193,3.0212 13.01591,0.0544 23.6659,0.49991 23.66666,0.99012 7.8e-4,0.49022 -4.04859,2.29022 -8.99859,4 -8.17702,2.82444 -11.19463,3.10086 -33,3.02286 -20.8505,-0.0745 -26.16627,-0.55576 -40.50747,-3.66667 -13.97016,-3.03043 -19.70852,-3.57999 -37.33333,-3.57545 -25.32992,0.007 -38.31219,1.96072 -70.82587,10.6613 -13.56666,3.63042 -30.36666,7.56032 -37.33333,8.73314 -15.07699,2.53817 -59.25764,3.6587 -72.66666,1.84301 z m 649.99994,0.52201 c -15.6901,-1.59728 -34.3878,-5.30022 -56,-11.0904 -32.4979,-8.70658 -45.48342,-10.66254 -70.83188,-10.66906 -17.31068,-0.004 -23.50849,0.56909 -36.66666,3.39314 -18.91554,4.05971 -51.2016,5.78327 -63.83133,3.40758 -9.17767,-1.72635 -19.33675,-5.34326 -19.33675,-6.8844 0,-0.57716 4.35,-0.72343 9.66667,-0.32506 12.02357,0.90091 34.8673,-1.48784 48.60479,-5.08257 16.98782,-4.44527 28.76888,-10.10229 44.6882,-21.45836 21.17938,-15.10835 26.74122,-17.48595 42.44386,-18.14416 14.7743,-0.61928 25.1926,1.55132 38.5965,8.04148 l 8.6666,4.19639 -13.3333,1.14128 c -16.7284,1.43189 -27.56523,4.1207 -35.30046,8.7587 l -6.03286,3.61728 4,0.36626 c 15.32732,1.4034 36.68922,5.34452 56.66662,10.45458 46.2407,11.828 62.4242,13.92879 86.9382,11.28554 35.15423,-3.79058 61.03663,-15.49447 80.31703,-36.31914 l 8.7448,-9.4452 v 5.25364 c 0,2.88951 -0.953,8.51255 -2.1177,12.49566 -7.5217,25.72272 -32.2617,41.4119 -73.2156,46.43061 -11.07293,1.35692 -41.70563,1.69207 -52.66673,0.57621 z M 622.89906,400.91407 c -4.22833,-4.50087 -3.93466,-11.90592 0.61407,-15.48396 7.30072,-5.74275 17.82019,-1.07739 17.82019,7.90322 0,9.2513 -12.16508,14.25395 -18.43426,7.58074 z m 49.70699,-0.1868 c -9.63979,-9.63978 3.78853,-23.76014 14.54745,-15.29716 2.68039,2.1084 3.51315,3.94962 3.51315,7.76758 0,9.86742 -11.09655,14.49363 -18.0606,7.52958 z m -25.20263,-14.22044 c -6.41694,-7.62611 -8,-11.95042 -7.99532,-21.84016 0.004,-7.20592 0.71964,-10.70096 3.14224,-15.33334 4.20167,-8.0342 10.58508,-16 12.82163,-16 2.79281,0 12.43432,14.36231 14.64989,21.82295 2.46932,8.31511 2.46931,10.70569 -6e-5,19.02101 -1.84478,6.212 -10.24547,17.98011 -11.771,16.48938 C 657.87557,390.3 657.04172,383.7 656.3978,376 l -1.17079,-14 -1.07515,14.33333 c -0.59134,7.88334 -1.56408,14.33334 -2.16166,14.33334 -0.59758,0 -2.66163,-1.87194 -4.58678,-4.15984 z m -276.88014,-8.35346 c -3.37885,-0.97908 -9.33405,-3.51413 -13.23377,-5.63344 -7.47864,-4.06425 -19.77991,-14.42008 -18.58671,-15.64721 0.38656,-0.39755 3.18203,-0.16576 6.21218,0.51507 3.76634,0.84624 9.31917,0.67156 17.55161,-0.55215 8.3542,-1.24181 14.39105,-1.42169 19.71152,-0.58736 8.67283,1.36003 21.12565,7.4874 26.39529,12.98772 l 3.53222,3.68683 -7.71948,2.98966 c -9.53134,3.69138 -25.26427,4.73251 -33.86286,2.24088 z m 546.14339,0.95855 c -1.4667,-0.31831 -6.1477,-1.83347 -10.4023,-3.36703 l -7.7357,-2.78829 3.5484,-3.70372 c 5.2843,-5.51564 17.7285,-11.64299 26.4115,-13.0046 5.3204,-0.83433 11.3573,-0.65445 19.7115,0.58736 7.901,1.17444 13.8374,1.38668 17.2622,0.61716 2.871,-0.64507 5.5208,-0.6862 5.8884,-0.0913 0.9287,1.50274 -10.6292,11.15545 -18.4618,15.41846 -11.0879,6.03479 -25.7677,8.60098 -36.2222,6.33204 z m -346.12544,-1.78247 c -11.7997,-1.3594 -27.85418,-5.28756 -41.53862,-10.16354 -11.49449,-4.09566 -38.68022,-17.85806 -44.33596,-22.44444 l -4,-3.24371 10.39832,3.26563 c 33.53747,10.53254 68.26746,9.5629 97.77584,-2.72984 6.50422,-2.70956 13.56759,-5.25263 15.69637,-5.65127 3.86924,-0.72455 3.87018,-0.72305 2.77276,4.45647 -0.60378,2.84969 -1.231,8.77961 -1.39382,13.17761 l -0.29604,7.99637 -5.81005,1.86578 c -3.70351,1.18929 -12.30522,1.90349 -23.72438,1.9698 -16.94033,0.0984 -17.59277,0.19848 -12,1.84108 10.86542,3.1912 25.70263,4.63012 38.74345,3.75733 12.13166,-0.81193 19.83755,0.45936 19.83755,3.27273 0,2.53075 -36.8488,4.38996 -52.12542,2.63 z m 138.12542,0.65124 c -1.46667,-0.27758 -6.71667,-0.88456 -11.66667,-1.34882 -4.95,-0.46427 -9,-1.30006 -9,-1.85731 0,-2.84749 7.41294,-4.03819 20.3641,-3.27095 9.69834,0.57452 17.13432,0.1962 25.75101,-1.31014 19.373,-3.38675 19.41806,-4.25042 0.22777,-4.3643 -11.21178,-0.0665 -19.80102,-0.78724 -23.48625,-1.97066 l -5.81005,-1.86578 -0.29604,-7.99637 c -0.16283,-4.398 -0.79004,-10.32792 -1.39383,-13.17761 -1.09741,-5.17952 -1.09648,-5.18102 2.77276,-4.45647 2.12879,0.39864 9.19216,2.94171 15.69637,5.65127 29.50839,12.29274 64.23837,13.26238 97.77584,2.72984 l 10.39832,-3.26563 -4,3.24371 c -12.38799,10.04576 -50.19251,25.89381 -72.6726,30.46513 -9.69041,1.97053 -39.24322,3.81944 -44.66073,2.79409 z m -436.07326,-8.7659 c -1.98856,-3.21756 -4.62762,-15.81888 -5.42029,-25.88146 -1.49341,-18.95816 4.09689,-33.39785 16.63112,-42.95802 7.83943,-5.97934 9.97265,-5.77855 6.63689,0.62469 -2.70124,5.1852 -2.71432,6.82055 -0.27714,34.63475 0.61994,7.07501 0.21137,9.42858 -2.76562,15.93117 -3.47952,7.60027 -11.23392,18.98111 -12.98633,19.05952 -0.50672,0.0227 -1.32511,-0.61212 -1.81863,-1.41065 z m 758.49871,-4.18592 c -10.5911,-14.82826 -13.1966,-24.40818 -10.2126,-37.54983 2.384,-10.49911 1.9257,-20.92012 -1.1952,-27.17616 -2.4588,-4.9286 -0.9604,-5.651 4.3523,-2.0984 15.4405,10.325 21.9591,27.7514 18.8077,50.27889 -1.7199,12.29387 -4.2971,21.11199 -6.3724,21.80378 -0.7215,0.24048 -3.1424,-2.12575 -5.3798,-5.25828 z m -845.42544,3.3773 c -5.32284,-0.70645 -5.39596,-2.20849 -0.48456,-9.95298 6.7742,-10.68179 18.55203,-14.1622 30.10785,-8.89702 4.05712,1.84855 4.16831,3.12922 0.75736,8.72338 -4.5199,7.41294 -17.70738,11.80865 -30.38065,10.12662 z m 923.96074,-0.451 c -6.9523,-1.41685 -12.997,-5.53517 -15.6475,-10.66074 -2.7542,-5.32604 -2.5504,-6.06794 2.2088,-8.03928 7.2342,-2.9965 15.9985,-2.36415 21.9692,1.58505 4.7784,3.16059 12.7291,14.77836 11.1354,16.27127 -1.4536,1.36164 -14.3994,1.91704 -19.6659,0.8437 z M 245.98175,357.54383 c -5.86496,-5.51795 -10.69881,-8.60659 -18,-11.50126 -7.96072,-3.15616 -11.76121,-5.72082 -18.77036,-12.66666 -10.60861,-10.51282 -14.57963,-19.53238 -14.96258,-33.98515 -0.24577,-9.27612 -0.20812,-9.38661 3.08452,-9.05096 1.83333,0.18688 7.59824,2.4276 12.8109,4.97937 13.1338,6.42943 26.40102,20.45546 33.79151,35.72419 4.72641,9.76476 11.79781,32.35552 10.51819,33.60208 -0.24967,0.24321 -4.06215,-2.95252 -8.47218,-7.10161 z M 1056,363.79275 c 0,-7.58954 9.89,-33.51858 16.5165,-43.30218 9.5677,-14.12593 29.7317,-29.02077 40.8168,-30.15077 3.3061,-0.33703 3.3306,-0.26109 2.9972,9.28447 -0.4408,12.61838 -4.2546,22.5199 -11.9865,31.1196 -7.0575,7.84972 -12.369,11.43914 -23.5503,15.91504 -5.118,2.04876 -10.8334,5.92097 -16.3333,11.06586 -4.6532,4.35287 -8.4604,7.08346 -8.4604,6.06798 z M 477.33332,333.86553 C 429.19608,319.7392 394.5904,299.30891 373.1949,272.38492 c -4.23756,-5.33251 -9.83094,-14.0506 -12.42974,-19.37353 -4.4946,-9.20598 -9.39269,-24.82831 -8.16833,-26.05267 0.31509,-0.31509 5.85971,2.47237 12.32136,6.19439 24.19768,13.93821 48.71717,22.29589 81.0818,27.63744 11,1.81546 23.9,4.52794 28.66666,6.02773 30.6187,9.63387 51.3408,29.4752 60.8143,58.22944 1.98757,6.03276 3.22224,11.3602 2.74369,11.83873 -1.91717,1.91718 -50.71417,-12.66305 -72.63636,-21.70326 -12.84158,-5.29559 -32.97698,-15.25906 -40.8216,-20.1995 -9.64292,-6.07297 -2.27118,0.60839 9.66472,8.75962 13.93635,9.51734 34.39459,21.43446 48.83139,28.44473 12.16353,5.90639 10.28858,6.43683 -5.92947,1.67749 z m 295.29722,-1.5322 c 2.92291,-15.75981 16.15901,-36.79022 30.41484,-48.32514 15.06728,-12.19151 30.78996,-18.22298 59.17987,-22.70234 31.58852,-4.98405 61.19692,-14.95417 83.76712,-28.2072 5.1375,-3.0167 9.8853,-5.79177 10.5507,-6.1668 1.8753,-1.05698 -0.1021,10.45602 -3.2332,18.82464 -9.8226,26.25328 -36.8169,52.20292 -73.0932,70.26446 -13.7256,6.83381 -48.28861,19.09341 -58.21669,20.64961 -4.50508,0.70616 -3.46976,-0.076 6.66667,-5.03696 15.75052,-7.70851 38.76632,-21.48352 51.66662,-30.92263 10.2179,-7.47637 14.3782,-11.68402 6,-6.06829 -7.7937,5.22397 -41.36753,20.99293 -55.06333,25.86215 -14.93443,5.30958 -54.29327,16.8285 -57.50108,16.8285 -1.66295,0 -1.88487,-0.97476 -1.13832,-5 z M 618.66665,320.66004 c -69.20216,-9.46169 -111.59054,-40.64316 -126.86918,-93.32671 -3.02856,-10.443 -4.98916,-47.82166 -2.68454,-51.18034 2.99819,-4.36948 17.91466,4.5284 24.84614,14.82105 l 4.70758,6.99036 v -6.19824 c 0,-18.56551 8.62344,-41.59808 20.9212,-55.87897 7.68794,-8.9277 17.53227,-17.87817 18.54726,-16.86318 0.40221,0.40222 -0.84151,3.10798 -2.76383,6.0128 -4.72133,7.13444 -8.38503,17.13658 -9.45009,25.79947 L 545.04044,158 l 4.87884,-6.82387 c 5.71413,-7.99217 14.3972,-13.21401 24.08071,-14.4817 12.09453,-1.58331 21.27546,-3.63651 25.33333,-5.66549 10.21877,-5.10949 16.54874,-14.93973 17.68433,-27.46318 l 0.72184,-7.960623 2.61032,5.088043 c 1.43568,2.79842 2.92748,8.58561 3.31511,12.86041 0.61929,6.82975 0.19333,8.81124 -3.51224,16.33832 -5.7565,11.69312 -14.83702,19.59746 -37.08933,32.28532 -22.74659,12.96966 -34.66464,23.85841 -38.37219,35.05817 -5.32548,16.08723 0.0139,51.11891 10.7144,70.29692 15.99781,28.67217 40.27336,44.27748 83.26109,53.52359 l 6,1.29052 -6.66667,0.0228 c -3.66666,0.012 -12.36666,-0.7566 -19.33333,-1.70912 z m 53.33333,0.39587 c 25.86179,-5.56254 42.8456,-12.54955 57.49484,-23.65295 23.46808,-17.78763 36.3234,-44.15784 38.10472,-78.1644 1.06376,-20.30793 -0.92235,-26.18516 -12.80941,-37.90523 -6.38647,-6.29674 -13.89459,-11.56942 -27.45681,-19.2819 -21.90712,-12.45799 -31.06103,-20.46268 -36.85167,-32.22514 -3.59093,-7.29421 -4.05492,-9.43658 -3.49112,-16.11928 0.35763,-4.23885 1.74601,-10.10701 3.08532,-13.04034 l 2.43508,-5.333333 0.97163,7.999993 c 1.251,10.30038 2.70394,13.93439 7.96853,19.93044 6.90047,7.8592 14.20468,10.64947 35.18426,13.44074 10.85186,1.4438 19.31236,7.16753 26.49647,17.9255 l 2.20149,3.29667 v -3.56117 c 0,-5.6012 -6.24305,-23.84466 -10.08458,-29.4692 -6.32936,-9.26706 -1.97298,-6.97849 9.81165,5.15441 17.58136,18.10096 25.77101,36.42797 26.10667,58.42219 l 0.16626,10.89462 4.92783,-7.61708 c 5.03904,-7.789 11.59291,-13.11473 19.54869,-15.88546 6.24988,-2.17662 6.81544,-0.7278 6.81888,17.46834 0.012,62.97355 -37.68785,106.48298 -106.44691,122.85074 -13.0068,3.0962 -37.17564,6.48936 -44.84848,6.29645 l -5.33334,-0.13409 z m -33.6021,-9.16248 c -4.18116,-0.61311 -10.93116,-2.08252 -15,-3.26536 -5.92688,-1.72299 -7.3979,-2.70431 -7.3979,-4.93519 0,-1.71743 -4.07232,-6.78637 -10.6263,-13.22687 -11.56744,-11.36716 -13.91787,-14.94613 -15.30632,-23.30676 -1.31065,-7.89208 0.29083,-14.41158 5.34495,-21.75898 l 4.41477,-6.41796 -4.53056,-12.03834 c -5.41952,-14.40041 -9.96509,-31.2265 -9.95821,-36.86176 0.008,-6.44549 4.30877,-12.16378 10.88213,-14.46844 3.17875,-1.11448 8.17954,-2.85504 11.11288,-3.8679 4.9526,-1.71012 5.36234,-2.23754 5.7398,-7.3881 0.39105,-5.33625 0.2647,-5.53661 -3.33334,-5.28546 -3.16984,0.22124 -3.7398,-0.24699 -3.7398,-3.07231 0,-2.80833 0.57751,-3.2938 3.66667,-3.08232 2.01667,0.13807 3.66667,-0.37613 3.66667,-1.14265 0,-0.76651 0.85034,-1.06736 1.88965,-0.66854 1.03931,0.39882 2.22048,-0.13698 2.62483,-1.19068 0.83474,-2.17534 4.81885,-2.63329 4.81885,-0.55389 0,0.74905 1.47543,2.03416 3.27872,2.8558 2.62216,1.19473 3.95167,1.05293 6.63936,-0.70811 2.62251,-1.71832 4.50867,-1.94404 8.58729,-1.02762 2.90843,0.65348 6.02531,0.66822 7.02731,0.0332 2.49353,-1.58016 10.11204,-1.46588 13.22164,0.19832 1.64883,0.88249 2.57901,2.78917 2.57901,5.28649 0,2.49732 -0.93018,4.404 -2.57901,5.28643 -3.1096,1.6642 -10.72811,1.77848 -13.22164,0.19832 -1.00316,-0.63571 -4.13637,-0.61628 -7.07447,0.0439 -4.03793,0.90727 -5.95078,0.71078 -8.16268,-0.83849 -3.86641,-2.70815 -5.76734,-2.55164 -9.06529,0.74631 -1.52336,1.52336 -3.62336,2.4422 -4.66667,2.04184 -1.32462,-0.50831 -1.8969,0.2651 -1.8969,2.56357 0,4.94621 -4.1528,8.16033 -14.5407,11.25397 -10.5125,3.13076 -13.4593,6.05604 -13.4593,13.361 0,5.82447 3.80211,19.78442 9.32729,34.24642 l 4.16556,10.90322 4.92024,-0.90322 c 5.6626,-1.03951 82.92383,-1.2362 92.92024,-0.23656 l 6.66667,0.66666 5.81078,-17.19494 c 3.19592,-9.45722 6.1246,-20.65582 6.50816,-24.88578 0.62974,-6.94482 0.36823,-8.01998 -2.69596,-11.08417 -1.86633,-1.86633 -5.095,-3.74832 -7.17482,-4.18221 -2.07983,-0.43388 -6.4815,-1.81966 -9.7815,-3.0795 -4.77238,-1.82194 -6.26101,-3.17204 -7.27573,-6.59866 C 691.90124,165.52877 690.60006,164 689.05758,164 c -1.31501,0 -2.39093,-0.61287 -2.39093,-1.36192 0,-0.74905 -1.42576,-2.01153 -3.16835,-2.80551 -2.4792,-1.1296 -3.88176,-0.97613 -6.44837,0.70558 -2.20417,1.44422 -4.66367,1.87244 -7.49833,1.3055 -3.83559,-0.76712 -4.21828,-1.29726 -4.21828,-5.84365 0,-4.54639 0.38269,-5.07653 4.21828,-5.84365 2.83466,-0.56694 5.29416,-0.13872 7.49833,1.3055 2.56661,1.68171 3.96917,1.83518 6.44837,0.70558 1.74259,-0.79398 3.16835,-2.05646 3.16835,-2.80551 0,-2.0794 3.98411,-1.62145 4.81885,0.55389 0.40435,1.0537 1.58552,1.5895 2.62483,1.19068 1.03931,-0.39882 1.88965,-0.098 1.88965,0.66854 0,0.76652 1.65,1.28072 3.66667,1.14265 3.08916,-0.21148 3.66667,0.27399 3.66667,3.08232 0,2.80833 -0.57751,3.2938 -3.66667,3.08232 -3.30645,-0.22636 -3.66667,0.17904 -3.66667,4.12668 0,5.60075 2.70796,7.91963 12.53044,10.73008 10.73471,3.07145 15.46956,7.91027 15.46956,15.8092 0,6.59145 -4.71762,24.03108 -10.59565,39.16889 l -3.82415,9.84838 4.20991,6.28389 4.20989,6.28389 0.012,-6.66666 c 0.0157,-9.1022 4.98262,-19.21363 15.36208,-31.27332 7.70801,-8.9558 8.51313,-9.54048 9.49237,-6.89336 1.09818,2.96864 1.74948,3.34589 8.2437,4.7749 l 3.7763,0.83095 -5.70598,3.0174 c -9.24846,4.89069 -11.84498,11.33481 -11.85407,29.4198 -0.004,8.13467 -0.61865,16.99093 -1.36572,19.6806 -1.66755,6.00381 -8.81104,12.51796 -15.78734,14.39649 -2.85754,0.76946 -5.97172,2.33427 -6.9204,3.47735 -2.10586,2.5374 -8.12151,5.74775 -15.25243,8.13968 -5.04076,1.69083 -5.09561,1.76433 -1,1.34016 5.36547,-0.55571 5.42633,0.45788 0.33333,5.55088 -2.2,2.2 -4,5.2294 -4,6.73199 0,2.15369 -1.48174,3.15398 -7,4.72557 -15.9597,4.54529 -31.96401,5.64963 -47.93544,3.30767 z m -15.73123,-15.09506 c 0,-0.29424 -2.11503,-1.78286 -4.70005,-3.30806 -4.45132,-2.62635 -4.62788,-2.63826 -3.33626,-0.22483 0.75008,1.40156 2.71511,2.80848 4.36672,3.12649 1.6516,0.31802 3.15292,0.65992 3.33626,0.75979 0.18333,0.0999 0.33333,-0.0592 0.33333,-0.35339 z M 716.809,267.94588 c 1.75504,-0.66727 3.19098,-2.12807 3.19098,-3.24621 0,-2.54384 0.74075,-2.72612 -8.66666,2.13261 -7.58087,3.91537 -7.73059,4.08456 -2.85766,3.22932 2.8283,-0.49637 6.5783,-1.44845 8.33334,-2.11572 z M 604.90486,231.12711 c -1.69012,-1.69012 -0.91445,-5.79378 1.09512,-5.79378 1.1,0 2,-0.5279 2,-1.17313 0,-1.92996 14.36252,-12.1712 21.76954,-15.52284 3.79342,-1.71651 9.01964,-3.50497 11.61381,-3.97437 3.5054,-0.63428 5.15699,-1.84822 6.43128,-4.72704 0.94304,-2.13048 1.33513,-4.48763 0.87131,-5.23811 -0.53348,-0.8632 1.68729,-1.36451 6.04469,-1.36451 5.41765,0 6.73219,0.40608 6.15803,1.9023 -1.46924,3.8288 2.21481,8.60164 7.30393,9.46253 8.31044,1.40583 21.02368,8.15365 22.45507,11.91851 0.99761,2.6239 2.21961,3.38333 5.44417,3.38333 3.03649,0 4.34589,0.71919 4.85517,2.66667 0.38355,1.46666 1.56911,2.66666 2.63458,2.66666 1.24633,0 1.78528,1.06994 1.51116,3 l -0.42607,3 -49.42845,0.34932 c -27.18566,0.19214 -49.83566,-0.0579 -50.33334,-0.55554 z m 41.76179,-40.86044 c 0,-3.04539 3.06152,-4.93334 8,-4.93334 4.93848,0 8,1.88795 8,4.93334 0,1.22962 -2.32479,1.73333 -8,1.73333 -5.67521,0 -8,-0.50371 -8,-1.73333 z m -129.9716,-45.17708 c -6.23276,-28.84702 4.1761,-44.44083 30.77178,-46.100073 7.18621,-0.44834 11.19982,-0.21097 11.19982,0.66235 0,0.748593 -3.3035,3.855243 -7.34112,6.903673 -12.60401,9.51612 -24.92584,28.06682 -28.76201,43.30165 -0.85072,3.37854 -1.98875,6.14281 -2.52895,6.14281 -0.5402,0 -2.04298,-4.90969 -3.33952,-10.91041 z m 272.09964,6.45733 c -1.34588,-7.17416 -10.59696,-24.96247 -17.15302,-32.98245 -3.34306,-4.08953 -9.13006,-9.76282 -12.86,-12.60731 -3.72993,-2.84448 -6.78169,-5.73307 -6.78169,-6.419083 0,-0.73148 4.6714,-0.95586 11.29583,-0.54257 22.00824,1.373043 32.05316,11.307643 31.95244,31.601473 -0.0496,9.98218 -2.54302,23.47643 -4.56938,24.72879 -0.57924,0.35799 -1.42712,-1.34249 -1.88418,-3.77885 z M 650.08324,127.16328 c -6.36202,-17.19461 -13.76147,-26.63613 -31.16135,-39.761123 -13.76752,-10.38505 -19.98166,-19.8364 -23.49565,-35.73549 -1.15212,-5.2128 1.91599,-4.84237 15.27562,1.84435 18.24744,9.13313 33.03556,25.88835 39.26588,44.48898 2.98588,8.914363 5.21523,28.467843 3.70502,32.496613 -1.10434,2.94604 -1.35086,2.71713 -3.58952,-3.33333 z m 7.25008,-4.80446 c 0,-13.59455 2.54549,-23.867603 8.91962,-35.997583 8.63678,-16.43583 23.03499,-29.4038 40.54754,-36.51979 4.29725,-1.74613 8.08738,-3.17478 8.42252,-3.17478 0.94728,0 -0.76636,9.43131 -2.75139,15.14272 -2.92708,8.4219 -10.54095,17.47807 -23.14487,27.52919 -6.53233,5.20927 -13.4945,11.389153 -15.4715,13.733083 -3.74476,4.43978 -13.85526,24.22436 -13.85526,27.11245 0,0.91218 -0.6,2.02933 -1.33333,2.48256 -0.84823,0.52423 -1.33333,-3.22611 -1.33333,-10.30785 z m -12,-46.466703 c -8.49102,-3.84358 -13.09114,-8.75774 -15.36468,-16.4136 -2.23039,-7.51053 -2.57256,-14.14518 -0.72954,-14.14518 0.68152,0 4.83378,3.45 9.22724,7.66666 5.68764,5.45877 8.39479,9.21447 9.40027,13.0412 0.77669,2.95599 2.30535,6.55599 3.39703,8 4.02072,5.31837 2.66473,5.74159 -5.93032,1.85092 z m 12.24364,1.91447 c 0.30752,-0.62696 1.91728,-4.13992 3.57724,-7.80659 1.65996,-3.66666 3.7174,-8.08519 4.57209,-9.81895 1.68391,-3.41586 13.81143,-14.84771 15.75123,-14.84771 1.6755,0 1.47876,8.07037 -0.32834,13.4677 -2.2456,6.707 -7.32936,12.90023 -12.8931,15.70686 -6.32374,3.18999 -11.39403,4.75616 -10.67912,3.29869 z m -6.67959,-18.19526 c -0.78603,-0.9471 -2.95363,-4.9971 -4.81691,-9 -5.83574,-12.53704 -3.94586,-28.68023 4.53299,-38.72022 4.93828,-5.8475295 7.10679,-4.7120795 13.18872,6.90574 4.11673,7.86385 4.42267,9.27883 3.88268,17.95762 -0.44291,7.11829 -1.53524,11.17093 -4.46887,16.57969 -6.147,11.33334 -7.07024,10.4079 -7.5528,-7.57076 l -0.4231,-15.7634 -0.28672,15.66667 c -0.27668,15.11901 -1.00455,17.62143 -4.05599,13.94466 z"
     id="path12"
     inkscape:connector-curvature="0" />
</svg>
